<svg id="App_Version_3" data-name="App Version 3" xmlns="http://www.w3.org/2000/svg" xmlns:xlink="http://www.w3.org/1999/xlink" viewBox="0 0 256 256"><defs><style>.cls-1{fill:url(#radial-gradient);}.cls-2,.cls-3{fill:#fff;}.cls-2{stroke:#fff;stroke-linecap:round;stroke-linejoin:round;stroke-width:5px;}</style><radialGradient id="radial-gradient" cx="128" cy="128" r="164.77" gradientUnits="userSpaceOnUse"><stop offset="0" stop-color="#22c55e"/><stop offset="1" stop-color="#1a7c3b"/></radialGradient></defs><title>favicon</title><rect class="cls-1" width="256" height="256" rx="28.35"/><circle class="cls-2" cx="185.82" cy="39.24" r="20.3"/><path class="cls-3" d="M178.52,174.17l-25.6,58.15a12.5,12.5,0,0,1-11.45,7.47,12.34,12.34,0,0,1-5-1.07,12.5,12.5,0,0,1-6.4-16.47l21.37-48.55-40.15-26.85-1.53-1a13.71,13.71,0,0,1-1.27-1c-.2-.18-.39-.35-.58-.54a18.4,18.4,0,0,1-2.58-23.39L136.12,74.7l-21.05-5.47L83.81,89.9A10.5,10.5,0,1,1,72.23,72.39L107.4,49.13a10.46,10.46,0,0,1,8.43-1.41l39.85,10.37.16,0,.22.06.44.14.23.09a3.38,3.38,0,0,1,.44.18,9.37,9.37,0,0,1,.85.4l.66.39,14.39,9.16a10.51,10.51,0,0,1,3.22,14.5l-.09.13-34.38,54L174,158.75A12.5,12.5,0,0,1,178.52,174.17Z" transform="translate(0 0)"/><path class="cls-3" d="M232.05,121.4a10.5,10.5,0,0,1-10.39,9.11,11.09,11.09,0,0,1-1.4-.09l-37.78-5a10.5,10.5,0,0,1-8.23-6.2l-3.71-8.47,13.58-21.35,7,16L223,109.6A10.5,10.5,0,0,1,232.05,121.4Z" transform="translate(0 0)"/><path class="cls-3" d="M114.86,161.29,99,183.63a12.49,12.49,0,0,1-10.19,5.26H37.35a12.5,12.5,0,1,1,0-25h45l13.49-19a28.29,28.29,0,0,0,5.07,6.56c.33.33.62.59.84.79l.11.09.13.12a23.68,23.68,0,0,0,2.2,1.67l1.53,1Z" transform="translate(0 0)"/></svg>